<mxfile host="app.diagrams.net" modified="2023-05-05T12:39:31.058Z" agent="Mozilla/5.0 (Macintosh; Intel Mac OS X 10_15_7) AppleWebKit/537.36 (KHTML, like Gecko) Chrome/112.0.0.0 Safari/537.36" etag="G0csUw4A3wivMG1OJfsH" version="21.2.1" type="device">
  <diagram name="第 1 页" id="6FjbnXi8QuBqyetCcC_e">
    <mxGraphModel dx="1434" dy="796" grid="1" gridSize="10" guides="1" tooltips="1" connect="1" arrows="1" fold="1" page="1" pageScale="1" pageWidth="827" pageHeight="1169" math="0" shadow="0">
      <root>
        <mxCell id="0" />
        <mxCell id="1" parent="0" />
        <mxCell id="4fk8Bp3TUuF-Of41HLoY-17" style="edgeStyle=orthogonalEdgeStyle;rounded=0;orthogonalLoop=1;jettySize=auto;html=1;entryX=0.5;entryY=0;entryDx=0;entryDy=0;" edge="1" parent="1" source="4fk8Bp3TUuF-Of41HLoY-6" target="4fk8Bp3TUuF-Of41HLoY-16">
          <mxGeometry relative="1" as="geometry" />
        </mxCell>
        <mxCell id="4fk8Bp3TUuF-Of41HLoY-6" value="&lt;font style=&quot;font-size: 18px;&quot;&gt;预处理器&lt;/font&gt;" style="rounded=0;whiteSpace=wrap;html=1;" vertex="1" parent="1">
          <mxGeometry x="255" y="300" width="120" height="60" as="geometry" />
        </mxCell>
        <mxCell id="4fk8Bp3TUuF-Of41HLoY-11" value="" style="group" vertex="1" connectable="0" parent="1">
          <mxGeometry x="250" y="40" width="130" height="190" as="geometry" />
        </mxCell>
        <mxCell id="4fk8Bp3TUuF-Of41HLoY-10" value="" style="rounded=0;whiteSpace=wrap;html=1;dashed=1;dashPattern=12 12;" vertex="1" parent="4fk8Bp3TUuF-Of41HLoY-11">
          <mxGeometry width="130" height="190" as="geometry" />
        </mxCell>
        <mxCell id="4fk8Bp3TUuF-Of41HLoY-7" value="&lt;font style=&quot;font-size: 18px;&quot;&gt;head_01.h&lt;/font&gt;" style="rounded=0;whiteSpace=wrap;html=1;" vertex="1" parent="4fk8Bp3TUuF-Of41HLoY-11">
          <mxGeometry x="10" y="10" width="110" height="50" as="geometry" />
        </mxCell>
        <mxCell id="4fk8Bp3TUuF-Of41HLoY-8" value="&lt;font style=&quot;font-size: 18px;&quot;&gt;head_02.h&lt;/font&gt;" style="rounded=0;whiteSpace=wrap;html=1;" vertex="1" parent="4fk8Bp3TUuF-Of41HLoY-11">
          <mxGeometry x="10" y="70" width="110" height="50" as="geometry" />
        </mxCell>
        <mxCell id="4fk8Bp3TUuF-Of41HLoY-9" value="&lt;font style=&quot;font-size: 18px;&quot;&gt;head_03.h&lt;/font&gt;" style="rounded=0;whiteSpace=wrap;html=1;" vertex="1" parent="4fk8Bp3TUuF-Of41HLoY-11">
          <mxGeometry x="10" y="130" width="110" height="50" as="geometry" />
        </mxCell>
        <mxCell id="4fk8Bp3TUuF-Of41HLoY-12" value="" style="group" vertex="1" connectable="0" parent="1">
          <mxGeometry x="56" y="240" width="130" height="180" as="geometry" />
        </mxCell>
        <mxCell id="4fk8Bp3TUuF-Of41HLoY-14" style="edgeStyle=orthogonalEdgeStyle;rounded=0;orthogonalLoop=1;jettySize=auto;html=1;" edge="1" parent="4fk8Bp3TUuF-Of41HLoY-12" source="4fk8Bp3TUuF-Of41HLoY-5">
          <mxGeometry relative="1" as="geometry">
            <mxPoint x="194" y="90" as="targetPoint" />
          </mxGeometry>
        </mxCell>
        <mxCell id="4fk8Bp3TUuF-Of41HLoY-5" value="" style="rounded=0;whiteSpace=wrap;html=1;dashed=1;dashPattern=12 12;" vertex="1" parent="4fk8Bp3TUuF-Of41HLoY-12">
          <mxGeometry width="130" height="180" as="geometry" />
        </mxCell>
        <mxCell id="4fk8Bp3TUuF-Of41HLoY-1" value="&lt;font style=&quot;font-size: 18px;&quot;&gt;file_01.c&lt;/font&gt;" style="rounded=0;whiteSpace=wrap;html=1;" vertex="1" parent="4fk8Bp3TUuF-Of41HLoY-12">
          <mxGeometry x="14" y="10" width="100" height="40" as="geometry" />
        </mxCell>
        <mxCell id="4fk8Bp3TUuF-Of41HLoY-2" value="&lt;font style=&quot;font-size: 18px;&quot;&gt;file_02.c&lt;/font&gt;" style="rounded=0;whiteSpace=wrap;html=1;" vertex="1" parent="4fk8Bp3TUuF-Of41HLoY-12">
          <mxGeometry x="14" y="70" width="100" height="40" as="geometry" />
        </mxCell>
        <mxCell id="4fk8Bp3TUuF-Of41HLoY-3" value="&lt;font style=&quot;font-size: 18px;&quot;&gt;file_03.c&lt;/font&gt;" style="rounded=0;whiteSpace=wrap;html=1;" vertex="1" parent="4fk8Bp3TUuF-Of41HLoY-12">
          <mxGeometry x="14" y="130" width="100" height="40" as="geometry" />
        </mxCell>
        <mxCell id="4fk8Bp3TUuF-Of41HLoY-15" style="edgeStyle=orthogonalEdgeStyle;rounded=0;orthogonalLoop=1;jettySize=auto;html=1;entryX=0.5;entryY=0;entryDx=0;entryDy=0;" edge="1" parent="1" source="4fk8Bp3TUuF-Of41HLoY-10" target="4fk8Bp3TUuF-Of41HLoY-6">
          <mxGeometry relative="1" as="geometry" />
        </mxCell>
        <mxCell id="4fk8Bp3TUuF-Of41HLoY-19" style="edgeStyle=orthogonalEdgeStyle;rounded=0;orthogonalLoop=1;jettySize=auto;html=1;entryX=0;entryY=0.5;entryDx=0;entryDy=0;" edge="1" parent="1" source="4fk8Bp3TUuF-Of41HLoY-16" target="4fk8Bp3TUuF-Of41HLoY-18">
          <mxGeometry relative="1" as="geometry" />
        </mxCell>
        <mxCell id="4fk8Bp3TUuF-Of41HLoY-16" value="&lt;font style=&quot;font-size: 18px;&quot;&gt;编译器&lt;/font&gt;" style="rounded=0;whiteSpace=wrap;html=1;" vertex="1" parent="1">
          <mxGeometry x="255" y="410" width="120" height="60" as="geometry" />
        </mxCell>
        <mxCell id="4fk8Bp3TUuF-Of41HLoY-25" style="edgeStyle=orthogonalEdgeStyle;rounded=0;orthogonalLoop=1;jettySize=auto;html=1;entryX=0;entryY=0.5;entryDx=0;entryDy=0;" edge="1" parent="1" source="4fk8Bp3TUuF-Of41HLoY-18" target="4fk8Bp3TUuF-Of41HLoY-20">
          <mxGeometry relative="1" as="geometry" />
        </mxCell>
        <mxCell id="4fk8Bp3TUuF-Of41HLoY-18" value="&lt;font style=&quot;font-size: 18px;&quot;&gt;汇编器&lt;/font&gt;" style="rounded=0;whiteSpace=wrap;html=1;" vertex="1" parent="1">
          <mxGeometry x="426" y="410" width="120" height="60" as="geometry" />
        </mxCell>
        <mxCell id="4fk8Bp3TUuF-Of41HLoY-24" value="" style="group" vertex="1" connectable="0" parent="1">
          <mxGeometry x="606" y="210" width="130" height="190" as="geometry" />
        </mxCell>
        <mxCell id="4fk8Bp3TUuF-Of41HLoY-20" value="" style="rounded=0;whiteSpace=wrap;html=1;dashed=1;dashPattern=12 12;" vertex="1" parent="4fk8Bp3TUuF-Of41HLoY-24">
          <mxGeometry width="130" height="190" as="geometry" />
        </mxCell>
        <mxCell id="4fk8Bp3TUuF-Of41HLoY-21" value="&lt;font style=&quot;font-size: 18px;&quot;&gt;file_01.o&lt;/font&gt;" style="rounded=0;whiteSpace=wrap;html=1;" vertex="1" parent="4fk8Bp3TUuF-Of41HLoY-24">
          <mxGeometry x="10" y="10" width="110" height="50" as="geometry" />
        </mxCell>
        <mxCell id="4fk8Bp3TUuF-Of41HLoY-22" value="&lt;font style=&quot;font-size: 18px;&quot;&gt;file_02.o&lt;/font&gt;" style="rounded=0;whiteSpace=wrap;html=1;" vertex="1" parent="4fk8Bp3TUuF-Of41HLoY-24">
          <mxGeometry x="10" y="70" width="110" height="50" as="geometry" />
        </mxCell>
        <mxCell id="4fk8Bp3TUuF-Of41HLoY-23" value="&lt;font style=&quot;font-size: 18px;&quot;&gt;file_03.o&lt;/font&gt;" style="rounded=0;whiteSpace=wrap;html=1;" vertex="1" parent="4fk8Bp3TUuF-Of41HLoY-24">
          <mxGeometry x="10" y="130" width="110" height="50" as="geometry" />
        </mxCell>
        <mxCell id="4fk8Bp3TUuF-Of41HLoY-29" style="edgeStyle=orthogonalEdgeStyle;rounded=0;orthogonalLoop=1;jettySize=auto;html=1;entryX=0;entryY=0.5;entryDx=0;entryDy=0;" edge="1" parent="1" source="4fk8Bp3TUuF-Of41HLoY-26" target="4fk8Bp3TUuF-Of41HLoY-28">
          <mxGeometry relative="1" as="geometry" />
        </mxCell>
        <mxCell id="4fk8Bp3TUuF-Of41HLoY-26" value="&lt;font style=&quot;font-size: 18px;&quot;&gt;链接器&lt;/font&gt;" style="rounded=0;whiteSpace=wrap;html=1;" vertex="1" parent="1">
          <mxGeometry x="790" y="275" width="120" height="60" as="geometry" />
        </mxCell>
        <mxCell id="4fk8Bp3TUuF-Of41HLoY-27" value="" style="edgeStyle=orthogonalEdgeStyle;rounded=0;orthogonalLoop=1;jettySize=auto;html=1;" edge="1" parent="1" source="4fk8Bp3TUuF-Of41HLoY-20" target="4fk8Bp3TUuF-Of41HLoY-26">
          <mxGeometry relative="1" as="geometry" />
        </mxCell>
        <mxCell id="4fk8Bp3TUuF-Of41HLoY-28" value="&lt;font style=&quot;font-size: 18px;&quot;&gt;a.out&lt;/font&gt;" style="rounded=0;whiteSpace=wrap;html=1;" vertex="1" parent="1">
          <mxGeometry x="967" y="277.5" width="110" height="55" as="geometry" />
        </mxCell>
      </root>
    </mxGraphModel>
  </diagram>
</mxfile>
